<svg width="411" height="253" viewBox="0 0 411 253" fill="none" xmlns="http://www.w3.org/2000/svg">
<path d="M45.6816 101.897C50.4126 90.2615 66.8886 90.2615 71.6197 101.897L80.3013 123.25H37L45.6816 101.897Z" fill="#D4202C"/>
<path d="M104.682 101.897C109.413 90.2615 125.889 90.2615 130.62 101.897L139.301 123.25H96L104.682 101.897Z" fill="#D4202C"/>
<path d="M145.013 31.6594C145.355 28.0351 150.645 28.0351 150.987 31.6594L153 53H143L145.013 31.6594Z" fill="#FFCE85"/>
<path d="M163.682 101.897C168.413 90.2615 184.889 90.2615 189.62 101.897L198.301 123.25H155L163.682 101.897Z" fill="#D4202C"/>
<path d="M222.682 101.897C227.413 90.2615 243.889 90.2615 248.62 101.897L257.301 123.25H214L222.682 101.897Z" fill="#D4202C"/>
<path d="M281.682 101.897C286.413 90.2615 302.889 90.2615 307.62 101.897L316.301 123.25H273L281.682 101.897Z" fill="#D4202C"/>
<path d="M340.682 101.897C345.413 90.2615 361.889 90.2615 366.62 101.897L375.301 123.25H332L340.682 101.897Z" fill="#D4202C"/>
<rect x="140" y="53" width="15" height="67" fill="#73A0E4"/>
<path d="M204.013 31.6594C204.355 28.0351 209.645 28.0351 209.987 31.6594L212 53H202L204.013 31.6594Z" fill="#FFCE85"/>
<rect x="199" y="53" width="15" height="67" fill="#73A0E4"/>
<path d="M263.013 31.6594C263.355 28.0351 268.645 28.0351 268.987 31.6594L271 53H261L263.013 31.6594Z" fill="#FFCE85"/>
<rect x="258" y="53" width="15" height="67" fill="#73A0E4"/>
<rect y="119" width="411" height="134" fill="#FFE7AA"/>
<rect y="175" width="411" height="22" fill="white"/>
</svg>
